<?xml version="1.0" encoding="UTF-8"?>
<!DOCTYPE svg PUBLIC "-//W3C//DTD SVG 1.1//EN" "http://www.w3.org/Graphics/SVG/1.1/DTD/svg11.dtd">
<!-- Creator: CorelDRAW 2019 (64-Bit) -->
<svg xmlns="http://www.w3.org/2000/svg" xml:space="preserve" width="101.785mm" height="97.1435mm" version="1.1" style="shape-rendering:geometricPrecision; text-rendering:geometricPrecision; image-rendering:optimizeQuality; fill-rule:evenodd; clip-rule:evenodd"
viewBox="0 0 922.3 880.24"
 xmlns:xlink="http://www.w3.org/1999/xlink">
 <defs>
  <style type="text/css">
   <![CDATA[
    .fil0 {fill:white}
    .fil1 {fill:white;fill-rule:nonzero}
   ]]>
  </style>
 </defs>
 <g id="Capa_x0020_1">
  <metadata id="CorelCorpID_0Corel-Layer"/>
  <g id="_204603848416">
   <path class="fil0" d="M34.08 270.72l174.32 109.6c3.65,2.35 5.85,6.4 5.85,10.73l0 7.43c0,10.05 -11.23,16.18 -19.69,10.75l-186.75 -120.05c-10.42,-6.7 -10.43,-30.21 0,-36.92l186.75 -120.05c8.46,-5.44 19.69,0.7 19.69,10.75l0 7.43c0,4.34 -2.2,8.38 -5.85,10.73l-174.32 109.6z"/>
   <path class="fil0" d="M346.16 126.62c10.13,3.03 17.68,10.56 21.12,19.76 10.02,6.88 23.69,12.61 43.42,18.27 19.3,5.54 42.37,16.58 68.93,36.88 30,-0.88 48.21,-0.31 69.98,6.39 22.04,6.79 39.12,10.24 51.21,9.99 7.91,-5.81 14.84,-9.02 28.49,-4.94 13.65,4.08 26.93,23.2 21.8,40.37 -5.13,17.16 -26.59,25.91 -40.36,21.8 -13.78,-4.12 -18.07,-10.95 -21.37,-20.47 -44.04,-30.88 -121.03,-19.79 -121.03,-19.79 0,0 -57.89,-53.16 -111.65,-51.5 -7.98,6.15 -18.7,8.5 -29.1,5.4 -17.16,-5.13 -26.92,-23.2 -21.8,-40.37 5.13,-17.17 23.2,-26.93 40.37,-21.8z"/>
   <path class="fil0" d="M526.58 171.79l24.97 -73.17c-22.81,0.1 -43.65,-10.35 -57.35,-27.11l-27.7 80.59c9.01,5.17 15.47,12.39 23.67,18.25 12.13,-0.36 24.99,0.52 36.4,1.44z"/>
   <path class="fil0" d="M597.15 8.97l0.15 0.43c8.69,26.38 -5.66,54.81 -32.04,63.5 -26.38,8.69 -54.81,-5.66 -63.49,-32.04 -4.66,-14.15 -2.69,-28.89 4.21,-40.85 8.85,26.11 37.11,40.25 63.35,31.61 12.23,-4.03 21.87,-12.3 27.83,-22.64z"/>
   <path class="fil0" d="M385.71 577.73l108.5 -311.11c-7.6,-2.44 -30.14,3.94 -38.63,5.93 -7.23,-14.46 -8.11,-15.07 -21.47,-25l-116.85 337.59c4.22,-1.72 8.95,-2.98 14.2,-3.78 4.64,-0.72 9.78,-1.33 15.42,-1.84 51.19,-150.16 100.23,-272.93 100.23,-272.93 -35.89,112.09 -66.23,202.24 -90.55,272.19 8.72,-0.56 18.44,-0.91 29.15,-1.06z"/>
   <path class="fil0" d="M888.22 270.72l-174.32 109.6c-3.65,2.35 -5.85,6.4 -5.85,10.73l0 7.43c0,10.05 11.23,16.18 19.69,10.75l186.75 -120.05c10.42,-6.7 10.43,-30.21 0,-36.92l-186.75 -120.05c-8.46,-5.44 -19.69,0.7 -19.69,10.75l0 7.43c0,4.34 2.2,8.38 5.85,10.73l174.32 109.6z"/>
   <path class="fil0" d="M51.31 738.16l25.34 0c0,2.1 0.05,3.57 0.15,4.3 0.2,11.54 1.03,18.98 2.45,22.36 1.52,3.57 4.21,6.21 8.02,7.97 3.82,1.81 9.64,3.08 17.51,3.86 10.13,0.93 29.4,1.42 57.92,1.42 26.86,0 46.72,-1.42 59.63,-4.31 12.52,-2.74 18.78,-12.42 18.78,-28.91 0,-9.59 -1.32,-16.58 -4.01,-21.08 -2.59,-4.3 -7.29,-7.04 -14.19,-8.32 -7.53,-1.32 -20.15,-2.05 -37.86,-2.15 -3.72,0 -24.8,0 -63.35,0 -22.99,0 -39.48,-2.93 -49.41,-8.85 -8.71,-5.09 -14.48,-11.69 -17.37,-19.91 -2.69,-7.68 -4.01,-16.29 -4.01,-25.93 0,-17.61 4.94,-30.33 14.77,-38.25 6.21,-5.09 13.06,-8.51 20.59,-10.32 18.54,-4.4 45.84,-6.6 81.84,-6.6 27,0 47.6,2.01 61.74,6.02 6.6,1.81 12.42,4.89 17.56,9.29 5.09,4.4 8.61,9.25 10.52,14.63 2.3,6.36 3.52,15.85 3.72,28.47l-26.07 0c0,-1.52 0,-2.54 0,-3.03 -0.1,-9.54 -1.12,-15.95 -3.13,-19.18 -3.62,-6.02 -12.77,-10.08 -27.35,-12.18 -9.83,-1.32 -22.65,-2.01 -38.4,-2.01 -31.4,0 -54.3,1.66 -68.58,4.99 -9.2,2.1 -15.21,6.6 -18.05,13.45 -1.61,3.82 -2.45,8.76 -2.45,14.77 0,8.85 1.12,15.31 3.42,19.32 3.81,6.6 17.41,10.52 40.7,11.89 6.41,0.39 35.22,0.64 86.44,0.83 18.74,0.1 31.94,2.54 39.58,7.34 13.35,8.27 20.06,23.09 20.06,44.37 0,14.19 -2.45,25.44 -7.29,33.61 -4.99,8.12 -12.33,13.6 -22.11,16.49 -11.64,3.52 -25.14,5.63 -40.41,6.31 -17.61,0.83 -35.91,1.27 -54.94,1.27 -21.38,0 -36.88,-0.59 -46.42,-1.71 -10.71,-1.37 -19.13,-3.57 -25.29,-6.75 -6.16,-3.13 -10.91,-7.58 -14.28,-13.31 -3.91,-6.6 -5.87,-16.34 -5.87,-29.11 0,-1.81 0.05,-5.53 0.1,-11.06zm347.37 -37.86l128.26 0c-0.2,30.23 -1.17,49.9 -2.98,58.99 -2.49,12.47 -7.14,21.48 -13.94,26.91 -7.34,5.82 -18.59,9.54 -33.66,11.15 -15.41,1.61 -36.35,2.44 -62.91,2.44 -39.67,0 -67.7,-1.27 -84.14,-3.86 -9.59,-1.52 -17.46,-4.99 -23.73,-10.32 -6.26,-5.33 -10.47,-12.23 -12.57,-20.6 -3.72,-14.63 -5.58,-35.71 -5.58,-63.2 0,-27.2 1.96,-48.38 5.87,-63.59 4.6,-17.76 17.32,-28.18 38.16,-31.36 16.14,-2.5 38.4,-3.72 66.77,-3.72 15.12,0 31.26,0.34 48.53,1.08 17.22,0.73 29.01,1.52 35.32,2.35 8.71,1.17 16.44,4.01 23.24,8.56 6.75,4.5 11.69,10.13 14.72,16.83 3.47,7.53 5.33,18.59 5.63,33.12l-26.95 0c-0.29,-15.21 -2.4,-24.75 -6.31,-28.72 -2.59,-2.45 -6.21,-4.31 -10.91,-5.43 -4.65,-1.13 -12.13,-2.1 -22.36,-2.89 -14.04,-0.93 -31.65,-1.42 -52.83,-1.42 -29.94,0 -51.85,0.98 -65.8,2.98 -10.91,1.66 -17.9,5.97 -21.08,12.91 -3.52,8.22 -5.28,26.66 -5.28,55.28 0,29.45 1.17,48.72 3.57,57.87 1.27,4.6 2.89,8.02 4.94,10.27 2.06,2.25 5.23,4.11 9.54,5.63 8.22,2.79 27.74,4.26 58.6,4.45 17.95,0.2 28.86,0.29 32.68,0.29 23.87,0 41.53,-0.98 52.88,-2.89 11.1,-1.81 17.9,-6.16 20.5,-13.16 2.3,-6.02 3.57,-18.39 3.87,-37.08l-102.04 0 0 -22.89zm152.53 -96.56l52.2 0 106.15 165.98 104.39 -165.98 52.49 0 0 195.77 -26.12 0 0 -171.41 -10.91 0 -109.14 171.41 -21.18 0 -110.31 -171.41 -11.45 0 0 171.41 -26.12 0 0 -195.77z"/>
   <path class="fil1" d="M51.02 859.87l7.52 0 0 1.13c0,0.58 0.01,0.96 0.03,1.11l0.01 0.13c0.02,1.64 0.09,2.99 0.19,4.05 0.1,0.98 0.22,1.68 0.36,2.07 0.14,0.38 0.34,0.71 0.59,1 0.26,0.29 0.59,0.54 0.97,0.75 0.43,0.23 0.98,0.43 1.66,0.6 0.73,0.18 1.57,0.32 2.53,0.43 1.29,0.13 3.17,0.24 5.65,0.31 2.37,0.07 5.42,0.1 9.17,0.1 3.45,0 6.43,-0.1 8.95,-0.31 2.52,-0.21 4.58,-0.51 6.19,-0.92 1.35,-0.34 2.35,-1.08 3.01,-2.23 0.7,-1.22 1.05,-2.93 1.05,-5.12 0,-1.34 -0.08,-2.48 -0.24,-3.43 -0.15,-0.89 -0.37,-1.61 -0.65,-2.15 -0.25,-0.46 -0.6,-0.85 -1.06,-1.15 -0.51,-0.34 -1.14,-0.59 -1.91,-0.75 -0.94,-0.19 -2.21,-0.33 -3.8,-0.44 -1.62,-0.1 -3.55,-0.17 -5.78,-0.18l-16.31 0c-3.02,0 -5.62,-0.22 -7.8,-0.66 -2.23,-0.46 -4.04,-1.15 -5.42,-2.08 -1.21,-0.8 -2.23,-1.73 -3.05,-2.8 -0.83,-1.08 -1.45,-2.29 -1.86,-3.62 -0.37,-1.2 -0.64,-2.46 -0.82,-3.78 -0.18,-1.32 -0.27,-2.71 -0.27,-4.18 0,-2.71 0.34,-5.06 1.02,-7.06 0.7,-2.05 1.75,-3.72 3.15,-5 0.85,-0.79 1.75,-1.46 2.71,-2 0.95,-0.54 1.95,-0.95 2.99,-1.24 2.43,-0.66 5.43,-1.15 9,-1.48 3.55,-0.32 7.65,-0.49 12.3,-0.49 3.48,0 6.58,0.15 9.29,0.45 2.71,0.3 5.01,0.75 6.88,1.35 0.92,0.29 1.79,0.68 2.6,1.16 0.82,0.49 1.58,1.09 2.3,1.79 0.72,0.7 1.32,1.45 1.82,2.23 0.51,0.8 0.9,1.65 1.18,2.53 0.32,1 0.56,2.24 0.73,3.71 0.16,1.43 0.26,3.09 0.29,4.98l0.02 1.15 -8.72 0 0 -2.02c-0.01,-1.33 -0.08,-2.43 -0.2,-3.31 -0.11,-0.79 -0.26,-1.35 -0.45,-1.7l-0.01 -0.01c-0.36,-0.68 -1.03,-1.27 -2.01,-1.76 -1.09,-0.55 -2.53,-0.97 -4.32,-1.27 -1.24,-0.19 -2.68,-0.33 -4.31,-0.43 -1.59,-0.09 -3.41,-0.14 -5.44,-0.14 -4.03,0 -7.51,0.12 -10.41,0.36 -2.89,0.24 -5.23,0.6 -7.02,1.07 -1.05,0.27 -1.9,0.69 -2.57,1.25 -0.63,0.53 -1.09,1.2 -1.38,2.01 -0.18,0.48 -0.32,1.04 -0.41,1.68 -0.09,0.65 -0.14,1.38 -0.14,2.21 0,1.23 0.07,2.29 0.2,3.16 0.13,0.81 0.31,1.46 0.55,1.93 0.36,0.7 1.29,1.3 2.77,1.79 1.67,0.55 3.98,0.93 6.9,1.12 0.83,0.06 3.08,0.1 6.75,0.14 3.71,0.04 8.86,0.07 15.45,0.1 2.48,0.01 4.6,0.21 6.35,0.58 1.82,0.38 3.28,0.97 4.37,1.74 1.89,1.33 3.31,3.18 4.25,5.55 0.92,2.31 1.38,5.11 1.38,8.38 0,2.15 -0.17,4.09 -0.49,5.81 -0.34,1.76 -0.85,3.29 -1.52,4.59l-0.01 0.01c-0.71,1.31 -1.59,2.41 -2.64,3.3 -1.04,0.88 -2.24,1.55 -3.61,2.01 -1.52,0.53 -3.19,0.95 -4.98,1.27 -1.78,0.32 -3.67,0.52 -5.66,0.63 -2.25,0.12 -4.57,0.21 -6.96,0.28 -2.47,0.07 -4.88,0.1 -7.23,0.1 -2.69,0 -5.07,-0.04 -7.13,-0.13 -2.05,-0.08 -3.7,-0.21 -4.94,-0.38l-0.01 -0c-1.43,-0.21 -2.7,-0.48 -3.82,-0.81 -1.15,-0.35 -2.16,-0.77 -3.02,-1.27 -0.87,-0.5 -1.65,-1.12 -2.32,-1.83 -0.68,-0.72 -1.27,-1.56 -1.75,-2.49 -0.56,-1.07 -0.97,-2.38 -1.25,-3.93 -0.27,-1.51 -0.4,-3.23 -0.4,-5.16 0.04,-0.09 0.03,-3.83 0.04,-4.36l0.98 0zm65.73 -39.31l7.91 0 20.37 50.81 0.82 0 19.79 -50.81 9.64 0 19.03 50.81 0.72 0 20.92 -50.81 9.54 0c-8.23,19.84 -16.45,39.68 -24.71,59.51l-12.61 0 -17.66 -47.25 -18.49 47.25 -12.79 0c-8,-19.84 -16,-39.68 -24.02,-59.51l1.55 0zm137.49 58.38l0 -58.38 35.77 0c3.83,0 7.13,0.09 9.88,0.27 2.75,0.18 4.94,0.46 6.54,0.84 2.01,0.47 3.79,1.32 5.33,2.54 1.55,1.23 2.85,2.84 3.9,4.82 0.69,1.3 1.25,2.9 1.69,4.8 0.42,1.85 0.73,4.01 0.93,6.48 0.1,1.27 0.17,2.77 0.22,4.51 0.05,1.73 0.08,3.57 0.08,5.52 0,3.52 -0.14,6.7 -0.42,9.53 -0.28,2.84 -0.71,5.33 -1.29,7.45 -0.91,3.36 -2.35,6.04 -4.32,8.03 -1.97,2 -4.46,3.28 -7.45,3.86 -1.49,0.29 -3.47,0.5 -5.92,0.65 -2.45,0.14 -5.34,0.22 -8.66,0.22l-36.29 0 0 -1.13zm8.72 -7.83l27.27 0c2.9,0 5.15,-0.02 6.75,-0.06 1.67,-0.04 2.84,-0.1 3.48,-0.19 1.4,-0.2 2.6,-0.53 3.58,-1 0.94,-0.45 1.71,-1.04 2.3,-1.75 1.09,-1.33 1.92,-3.47 2.49,-6.42 0.59,-3.07 0.88,-6.98 0.88,-11.73 0,-8.75 -0.95,-14.43 -2.84,-17.08l-0.01 -0.01c-0.32,-0.45 -0.69,-0.86 -1.12,-1.21 -0.44,-0.36 -0.93,-0.66 -1.48,-0.9 -0.56,-0.24 -1.25,-0.46 -2.06,-0.64 -0.81,-0.18 -1.74,-0.33 -2.78,-0.43 -0.65,-0.06 -1.74,-0.1 -3.29,-0.13 -1.43,-0.02 -3.51,-0.04 -6.24,-0.04l-26.94 0 0 41.59zm69.82 7.83l0 -58.38 51.34 0 0 8.96 -42.62 0 0 15.24 40.81 0 0 8.96 -40.81 0 0 17.39 42.7 0 0 8.96 -51.42 0 0 -1.13zm60.08 -58.38l7.99 0 24.94 50.21 1.21 0 24.38 -50.21 9.77 0c-9.64,19.84 -19.27,39.68 -28.93,59.51l-11.53 0c-9.83,-19.85 -19.69,-39.68 -29.54,-59.51l1.7 0zm78 58.38l0 -58.38 51.34 0 0 8.96 -42.62 0 0 15.24 40.81 0 0 8.96 -40.81 0 0 17.39 42.7 0 0 8.96 -51.42 0 0 -1.13zm64.85 -58.38l7.72 0 0 50.55 39.75 0 0 8.96 -48.47 0 0 -59.51 1 0zm92.55 -0.09c4.98,0 9.21,0.13 12.7,0.38 3.5,0.25 6.23,0.64 8.18,1.15l0.01 0c1.51,0.41 2.85,1.08 4.01,1.99 1.17,0.92 2.16,2.09 2.97,3.51l0.01 0.01c0.98,1.76 1.7,4.59 2.17,8.5 0.46,3.81 0.68,8.67 0.68,14.58 0,3.56 -0.08,6.77 -0.25,9.62 -0.17,2.84 -0.42,5.33 -0.76,7.45 -0.49,3.06 -1.49,5.53 -3,7.39 -1.53,1.88 -3.55,3.13 -6.07,3.76 -1.92,0.47 -4.31,0.83 -7.16,1.06 -2.83,0.23 -6.11,0.35 -9.83,0.35 -1.97,0 -4.2,-0.02 -6.69,-0.06 -2.32,-0.04 -4.7,-0.09 -7.15,-0.16 -2.44,-0.06 -4.44,-0.13 -6,-0.2 -1.69,-0.07 -2.9,-0.15 -3.63,-0.22l-0.01 -0c-1.28,-0.14 -2.42,-0.33 -3.43,-0.56 -1.07,-0.25 -1.99,-0.54 -2.76,-0.88l-0.01 -0c-0.78,-0.35 -1.54,-0.8 -2.25,-1.36 -0.7,-0.54 -1.36,-1.19 -1.97,-1.93 -0.73,-0.86 -1.34,-1.81 -1.82,-2.83 -0.49,-1.03 -0.85,-2.13 -1.09,-3.3 -0.38,-1.83 -0.67,-4.28 -0.86,-7.36 -0.19,-3.05 -0.28,-6.71 -0.28,-10.98 0,-4.64 0.14,-8.63 0.42,-11.96 0.28,-3.37 0.72,-6.04 1.29,-8.02 0.73,-2.48 1.93,-4.46 3.61,-5.93 1.66,-1.45 3.76,-2.4 6.3,-2.83 2.26,-0.4 5.29,-0.69 9.07,-0.89 3.81,-0.2 8.35,-0.3 13.6,-0.3zm-4.7 9.13c-3.3,0 -6.18,0.08 -8.62,0.23 -2.45,0.16 -4.51,0.39 -6.15,0.71 -1.25,0.23 -2.25,0.59 -3.01,1.09 -0.67,0.45 -1.15,1 -1.41,1.65 -1.02,2.58 -1.53,8.06 -1.53,16.44 0,3.5 0.06,6.5 0.16,9 0.11,2.52 0.27,4.58 0.49,6.2 0.16,1.16 0.45,2.11 0.86,2.86 0.38,0.68 0.87,1.19 1.48,1.51 0.69,0.37 1.69,0.67 3.02,0.91 1.39,0.25 3.11,0.43 5.16,0.55 2.51,0.12 4.87,0.22 7.06,0.28 2.12,0.06 4.2,0.09 6.24,0.09 4.16,0 7.7,-0.09 10.63,-0.28 2.94,-0.18 5.29,-0.46 7.05,-0.83l0.01 -0c0.67,-0.13 1.26,-0.33 1.77,-0.6 0.48,-0.25 0.88,-0.56 1.2,-0.93 0.32,-0.36 0.59,-0.82 0.82,-1.37 0.24,-0.57 0.43,-1.25 0.57,-2.03 0.28,-1.67 0.48,-3.74 0.62,-6.18 0.14,-2.45 0.21,-5.3 0.21,-8.54 0,-1.49 -0.02,-2.93 -0.05,-4.34 -0.04,-1.46 -0.09,-3 -0.17,-4.6 -0.07,-1.59 -0.15,-2.9 -0.23,-3.92 -0.08,-1.03 -0.17,-1.83 -0.27,-2.4l-0 -0.02c-0.2,-1.3 -0.69,-2.33 -1.46,-3.08 -0.81,-0.79 -1.94,-1.32 -3.41,-1.58 -1.18,-0.2 -2.42,-0.36 -3.72,-0.47 -1.34,-0.12 -2.72,-0.19 -4.13,-0.22 -1.92,-0.04 -3.97,-0.08 -6.16,-0.1 -1.9,-0.02 -4.24,-0.03 -7.03,-0.03zm49.62 49.33l0 -58.38c5.54,0 29.59,-0.78 32.91,0 4.2,0.1 7.57,0.2 10.08,0.31 2.55,0.11 4.28,0.23 5.17,0.37 1.35,0.2 2.58,0.63 3.7,1.28 1.12,0.66 2.12,1.56 3.01,2.69 1.09,1.4 1.91,3.31 2.44,5.73 0.51,2.33 0.77,5.15 0.77,8.46 0,5.02 -0.54,8.86 -1.6,11.5 -0.38,0.95 -0.89,1.83 -1.51,2.63 -0.61,0.79 -1.33,1.51 -2.16,2.15 -0.82,0.64 -1.69,1.15 -2.61,1.55 -0.91,0.4 -1.87,0.67 -2.88,0.83l-0.01 0c-0.97,0.14 -2.69,0.25 -5.14,0.33 -2.37,0.08 -5.46,0.12 -9.26,0.14l-24.17 0 0 21.54 -8.72 0 0 -1.13zm8.72 -29.37l24.17 0c2.94,-0.01 5.38,-0.05 7.3,-0.11 1.91,-0.06 3.3,-0.15 4.17,-0.25 1.23,-0.18 2.2,-0.58 2.92,-1.2 0.69,-0.59 1.17,-1.42 1.44,-2.46 0.15,-0.6 0.27,-1.39 0.35,-2.35 0.08,-0.96 0.12,-2.13 0.12,-3.51 0,-1.61 -0.04,-2.98 -0.13,-4.09 -0.08,-1.08 -0.2,-1.91 -0.35,-2.48 -0.24,-0.84 -0.68,-1.51 -1.32,-2 -0.71,-0.54 -1.67,-0.9 -2.89,-1.06 -0.91,-0.11 -2.33,-0.21 -4.28,-0.3 -1.95,-0.09 -4.4,-0.17 -7.34,-0.24l-24.17 0 0 20.05zm61.73 29.37l0 -58.38 51.34 0 0 8.96 -42.62 0 0 15.24 40.81 0 0 8.96 -40.81 0 0 17.39 42.7 0 0 8.96 -51.42 0 0 -1.13zm63.85 0l0 -58.38c3.49,0 31.85,-0.21 32.41,0 4.29,0.06 7.79,0.14 10.5,0.26 2.76,0.12 4.75,0.27 5.96,0.46 2.22,0.33 4.12,1.08 5.68,2.23 1.59,1.17 2.83,2.76 3.71,4.76l0 0.01c0.57,1.32 1,2.87 1.28,4.64 0.28,1.75 0.42,3.72 0.42,5.9 0,2.02 -0.07,3.81 -0.19,5.36 -0.13,1.57 -0.33,2.88 -0.59,3.91 -0.49,1.87 -1.46,3.41 -2.91,4.63 -0.66,0.56 -1.42,1.04 -2.28,1.45 0.96,0.53 1.8,1.21 2.52,2.04l0.02 0.02c0.38,0.46 0.72,0.95 1,1.47 0.3,0.54 0.53,1.09 0.71,1.64l0 0.01c0.17,0.53 0.31,1.18 0.43,1.92 0.12,0.74 0.21,1.55 0.27,2.42 0.04,0.52 0.07,1.38 0.09,2.57 0.02,1.32 0.03,2.84 0.03,4.55l0 9.26 -8.72 0 0 -6.61c0,-2.39 -0.02,-4.35 -0.06,-5.87 -0.04,-1.55 -0.11,-2.76 -0.19,-3.63 -0.21,-1.58 -0.7,-2.81 -1.45,-3.7 -0.75,-0.88 -1.79,-1.45 -3.13,-1.72 -0.71,-0.12 -1.52,-0.21 -2.42,-0.28 -0.94,-0.07 -1.96,-0.11 -3.04,-0.13l-7.64 -0.04 -23.68 0 0 21.97 -8.72 0 0 -1.13zm8.72 -29.8l23.68 0c3.31,0 6.01,-0.03 8.1,-0.1 2.17,-0.07 3.82,-0.17 4.94,-0.3 1.48,-0.19 2.65,-0.63 3.5,-1.3 0.78,-0.62 1.31,-1.47 1.56,-2.55 0.2,-0.86 0.35,-1.8 0.45,-2.81 0.1,-1 0.15,-2.08 0.15,-3.25 0,-2.04 -0.18,-3.71 -0.55,-5 -0.33,-1.17 -0.81,-2.01 -1.43,-2.51 -0.45,-0.37 -1.01,-0.67 -1.68,-0.89 -0.7,-0.24 -1.52,-0.41 -2.44,-0.5 -1.43,-0.13 -3.19,-0.24 -5.26,-0.31 -2.01,-0.07 -4.45,-0.1 -7.33,-0.1l-23.68 0 0 19.62z"/>
  </g>
 </g>
</svg>
