<?xml version="1.0" encoding="UTF-8"?>
<!DOCTYPE svg PUBLIC "-//W3C//DTD SVG 1.1//EN" "http://www.w3.org/Graphics/SVG/1.1/DTD/svg11.dtd">
<!-- Creator: CorelDRAW 2019 (64-Bit) -->
<svg xmlns="http://www.w3.org/2000/svg" xml:space="preserve" width="101.785mm" height="97.1435mm" version="1.1" style="shape-rendering:geometricPrecision; text-rendering:geometricPrecision; image-rendering:optimizeQuality; fill-rule:evenodd; clip-rule:evenodd"
viewBox="0 0 717.43 684.71"
 xmlns:xlink="http://www.w3.org/1999/xlink">
 <defs>
  <style type="text/css">
   <![CDATA[
    .fil0 {fill:black}
    .fil1 {fill:black;fill-rule:nonzero}
   ]]>
  </style>
 </defs>
 <g id="Capa_x0020_1">
  <metadata id="CorelCorpID_0Corel-Layer"/>
  <g id="_204603424448">
   <path class="fil0" d="M26.51 210.59l135.6 85.25c2.84,1.83 4.55,4.98 4.55,8.35l0 5.78c0,7.82 -8.74,12.59 -15.31,8.36l-145.27 -93.38c-8.11,-5.21 -8.11,-23.5 0,-28.72l145.27 -93.38c6.58,-4.23 15.31,0.54 15.31,8.36l0 5.78c0,3.37 -1.71,6.52 -4.55,8.35l-135.6 85.25z"/>
   <path class="fil0" d="M269.26 98.49c7.88,2.35 13.76,8.22 16.43,15.37 7.79,5.35 18.43,9.81 33.78,14.22 15.01,4.31 32.96,12.89 53.62,28.69 23.34,-0.68 37.5,-0.24 54.43,4.97 17.14,5.28 30.43,7.97 39.84,7.77 6.16,-4.52 11.55,-7.01 22.16,-3.84 10.62,3.17 20.94,18.05 16.96,31.4 -3.99,13.35 -20.68,20.16 -31.4,16.96 -10.72,-3.2 -14.05,-8.52 -16.62,-15.92 -34.26,-24.02 -94.14,-15.39 -94.14,-15.39 0,0 -45.03,-41.35 -86.85,-40.06 -6.21,4.78 -14.55,6.61 -22.63,4.2 -13.35,-3.99 -20.94,-18.05 -16.96,-31.4 3.99,-13.35 18.05,-20.94 31.4,-16.96z"/>
   <path class="fil0" d="M409.61 133.63l19.43 -56.92c-17.74,0.08 -33.95,-8.05 -44.61,-21.08l-21.55 62.69c7,4.02 12.03,9.64 18.41,14.19 9.44,-0.28 19.44,0.41 28.32,1.12z"/>
   <path class="fil0" d="M464.5 6.98l0.11 0.33c6.76,20.52 -4.4,42.63 -24.92,49.39 -20.52,6.76 -42.63,-4.4 -49.39,-24.92 -3.62,-11.01 -2.09,-22.47 3.27,-31.78 6.89,20.31 28.87,31.31 49.28,24.59 9.52,-3.13 17.01,-9.57 21.65,-17.61z"/>
   <path class="fil0" d="M300.04 449.4l84.4 -242c-5.92,-1.9 -23.45,3.06 -30.05,4.62 -5.62,-11.25 -6.31,-11.72 -16.7,-19.45l-90.89 262.6c3.28,-1.34 6.96,-2.32 11.04,-2.94 3.61,-0.56 7.61,-1.03 12,-1.43 39.82,-116.8 77.96,-212.3 77.96,-212.3 -27.92,87.19 -51.52,157.32 -70.44,211.73 6.78,-0.43 14.34,-0.71 22.68,-0.82z"/>
   <path class="fil0" d="M690.92 210.59l-135.6 85.25c-2.84,1.83 -4.55,4.98 -4.55,8.35l0 5.78c0,7.82 8.74,12.59 15.31,8.36l145.27 -93.38c8.11,-5.21 8.11,-23.5 0,-28.72l-145.27 -93.38c-6.58,-4.23 -15.31,0.54 -15.31,8.36l0 5.78c0,3.37 1.71,6.52 4.55,8.35l135.6 85.25z"/>
   <path class="fil0" d="M39.91 574.19l19.71 0c0,1.64 0.04,2.78 0.11,3.35 0.15,8.98 0.8,14.76 1.9,17.39 1.18,2.78 3.27,4.83 6.24,6.2 2.97,1.41 7.5,2.4 13.62,3.01 7.88,0.72 22.87,1.1 45.05,1.1 20.89,0 36.34,-1.1 46.39,-3.35 9.74,-2.13 14.61,-9.66 14.61,-22.49 0,-7.46 -1.03,-12.9 -3.12,-16.4 -2.02,-3.35 -5.67,-5.48 -11.04,-6.47 -5.86,-1.03 -15.68,-1.6 -29.45,-1.67 -2.89,0 -19.29,0 -49.28,0 -17.88,0 -30.71,-2.28 -38.43,-6.89 -6.77,-3.96 -11.26,-9.09 -13.51,-15.49 -2.09,-5.97 -3.12,-12.67 -3.12,-20.17 0,-13.7 3.84,-23.59 11.49,-29.76 4.83,-3.96 10.16,-6.62 16.02,-8.03 14.42,-3.42 35.65,-5.14 63.66,-5.14 21.01,0 37.03,1.56 48.02,4.68 5.14,1.41 9.66,3.8 13.66,7.23 3.96,3.42 6.7,7.19 8.18,11.38 1.79,4.95 2.74,12.33 2.89,22.15l-20.28 0c0,-1.18 0,-1.98 0,-2.36 -0.08,-7.42 -0.87,-12.41 -2.44,-14.92 -2.82,-4.68 -9.93,-7.84 -21.27,-9.47 -7.65,-1.03 -17.62,-1.56 -29.87,-1.56 -24.43,0 -42.24,1.29 -53.35,3.88 -7.15,1.64 -11.83,5.14 -14.04,10.46 -1.26,2.97 -1.9,6.81 -1.9,11.49 0,6.89 0.87,11.91 2.66,15.03 2.97,5.14 13.55,8.18 31.66,9.25 4.98,0.31 27.4,0.49 67.24,0.65 14.57,0.08 24.85,1.98 30.78,5.71 10.39,6.43 15.6,17.96 15.6,34.51 0,11.04 -1.9,19.79 -5.67,26.14 -3.88,6.32 -9.59,10.58 -17.2,12.82 -9.06,2.74 -19.56,4.38 -31.43,4.91 -13.7,0.65 -27.93,0.99 -42.73,0.99 -16.63,0 -28.69,-0.46 -36.11,-1.33 -8.33,-1.07 -14.88,-2.78 -19.67,-5.25 -4.79,-2.44 -8.48,-5.9 -11.11,-10.35 -3.04,-5.14 -4.57,-12.71 -4.57,-22.64 0,-1.41 0.04,-4.3 0.08,-8.6zm270.21 -29.45l99.77 0c-0.15,23.52 -0.91,38.81 -2.32,45.89 -1.94,9.7 -5.55,16.7 -10.84,20.93 -5.71,4.53 -14.46,7.42 -26.18,8.68 -11.99,1.26 -28.27,1.9 -48.93,1.9 -30.86,0 -52.66,-0.99 -65.45,-3.01 -7.46,-1.18 -13.58,-3.88 -18.46,-8.03 -4.87,-4.15 -8.14,-9.51 -9.78,-16.02 -2.89,-11.38 -4.34,-27.78 -4.34,-49.16 0,-21.16 1.52,-37.63 4.57,-49.47 3.58,-13.81 13.47,-21.92 29.68,-24.39 12.56,-1.94 29.87,-2.89 51.94,-2.89 11.76,0 24.32,0.27 37.75,0.84 13.39,0.57 22.56,1.18 27.47,1.83 6.77,0.91 12.79,3.12 18.07,6.66 5.25,3.5 9.1,7.88 11.45,13.09 2.7,5.86 4.15,14.46 4.38,25.76l-20.97 0c-0.23,-11.83 -1.86,-19.25 -4.91,-22.34 -2.02,-1.9 -4.83,-3.35 -8.49,-4.22 -3.62,-0.88 -9.44,-1.64 -17.39,-2.24 -10.92,-0.72 -24.62,-1.1 -41.1,-1.1 -23.29,0 -40.33,0.76 -51.18,2.32 -8.48,1.29 -13.93,4.64 -16.4,10.04 -2.74,6.39 -4.11,20.74 -4.11,43 0,22.91 0.91,37.9 2.78,45.02 0.99,3.58 2.24,6.24 3.84,7.99 1.6,1.75 4.07,3.2 7.42,4.38 6.39,2.17 21.57,3.31 45.59,3.46 13.96,0.15 22.45,0.23 25.42,0.23 18.57,0 32.31,-0.76 41.13,-2.24 8.64,-1.41 13.93,-4.8 15.94,-10.24 1.79,-4.68 2.78,-14.31 3.01,-28.84l-79.38 0 0 -17.81zm118.65 -75.11l40.6 0 82.57 129.11 81.2 -129.11 40.83 0 0 152.28 -20.32 0 0 -133.33 -8.49 0 -84.89 133.33 -16.48 0 -85.81 -133.33 -8.9 0 0 133.33 -20.32 0 0 -152.28z"/>
   <path class="fil1" d="M39.68 668.87l5.85 0 0 0.88c0,0.45 0.01,0.75 0.02,0.86l0.01 0.1c0.02,1.27 0.07,2.33 0.15,3.15 0.07,0.77 0.17,1.3 0.28,1.61 0.11,0.29 0.26,0.55 0.46,0.78 0.2,0.23 0.46,0.42 0.76,0.58 0.34,0.18 0.77,0.34 1.29,0.47 0.57,0.14 1.23,0.25 1.97,0.34 1,0.1 2.47,0.18 4.39,0.24 1.84,0.05 4.22,0.08 7.13,0.08 2.68,0 5,-0.08 6.96,-0.24 1.96,-0.16 3.56,-0.4 4.81,-0.72 1.05,-0.26 1.83,-0.84 2.34,-1.73 0.54,-0.95 0.81,-2.28 0.81,-3.98 0,-1.04 -0.06,-1.93 -0.18,-2.67 -0.12,-0.69 -0.28,-1.25 -0.5,-1.67 -0.19,-0.36 -0.47,-0.66 -0.83,-0.9 -0.39,-0.26 -0.89,-0.46 -1.49,-0.58 -0.73,-0.14 -1.72,-0.26 -2.95,-0.34 -1.26,-0.08 -2.76,-0.13 -4.5,-0.14l-12.69 0c-2.35,0 -4.37,-0.17 -6.06,-0.52 -1.74,-0.36 -3.15,-0.9 -4.22,-1.62 -0.94,-0.62 -1.73,-1.35 -2.37,-2.18 -0.65,-0.84 -1.13,-1.78 -1.45,-2.82 -0.29,-0.93 -0.5,-1.91 -0.64,-2.94 -0.14,-1.03 -0.21,-2.11 -0.21,-3.25 0,-2.11 0.27,-3.94 0.8,-5.49 0.54,-1.59 1.36,-2.89 2.45,-3.89 0.66,-0.61 1.36,-1.13 2.11,-1.56 0.74,-0.42 1.52,-0.74 2.33,-0.96 1.89,-0.51 4.23,-0.9 7,-1.15 2.76,-0.25 5.95,-0.38 9.57,-0.38 2.71,0 5.12,0.12 7.22,0.35 2.11,0.23 3.9,0.59 5.35,1.05 0.72,0.23 1.39,0.53 2.02,0.9 0.63,0.38 1.23,0.85 1.79,1.39 0.56,0.55 1.03,1.12 1.42,1.73 0.4,0.62 0.7,1.28 0.92,1.97 0.25,0.78 0.43,1.74 0.57,2.88 0.13,1.11 0.2,2.4 0.22,3.87l0.01 0.9 -6.78 0 0 -1.57c-0.01,-1.03 -0.06,-1.89 -0.16,-2.58 -0.09,-0.61 -0.2,-1.05 -0.35,-1.32l-0.01 -0.01c-0.28,-0.53 -0.8,-0.99 -1.56,-1.37 -0.85,-0.43 -1.97,-0.76 -3.36,-0.98 -0.96,-0.15 -2.08,-0.26 -3.35,-0.33 -1.24,-0.07 -2.65,-0.11 -4.23,-0.11 -3.14,0 -5.84,0.09 -8.1,0.28 -2.25,0.19 -4.07,0.46 -5.46,0.83 -0.82,0.21 -1.48,0.54 -2,0.97 -0.49,0.41 -0.85,0.94 -1.08,1.56 -0.14,0.37 -0.25,0.81 -0.32,1.31 -0.07,0.5 -0.11,1.08 -0.11,1.72 0,0.96 0.05,1.78 0.16,2.46 0.1,0.63 0.24,1.13 0.42,1.5 0.28,0.55 1,1.01 2.16,1.39 1.3,0.43 3.09,0.72 5.37,0.87 0.65,0.04 2.4,0.08 5.25,0.11 2.89,0.03 6.89,0.06 12.02,0.08 1.93,0.01 3.58,0.16 4.94,0.45 1.42,0.3 2.55,0.75 3.4,1.36 1.47,1.03 2.57,2.48 3.31,4.32 0.72,1.8 1.07,3.97 1.07,6.52 0,1.67 -0.13,3.18 -0.38,4.52 -0.26,1.37 -0.66,2.56 -1.19,3.57l-0.01 0.01c-0.55,1.02 -1.24,1.88 -2.05,2.57 -0.81,0.69 -1.75,1.21 -2.81,1.56 -1.18,0.41 -2.48,0.74 -3.88,0.98 -1.38,0.25 -2.85,0.41 -4.4,0.49 -1.75,0.09 -3.55,0.17 -5.42,0.22 -1.92,0.05 -3.8,0.08 -5.62,0.08 -2.09,0 -3.94,-0.03 -5.54,-0.1 -1.59,-0.07 -2.88,-0.17 -3.84,-0.29l-0.01 -0c-1.11,-0.16 -2.1,-0.37 -2.97,-0.63 -0.9,-0.27 -1.68,-0.6 -2.35,-0.99 -0.68,-0.39 -1.28,-0.87 -1.81,-1.42 -0.53,-0.56 -0.99,-1.21 -1.36,-1.94 -0.43,-0.83 -0.76,-1.85 -0.97,-3.06 -0.21,-1.17 -0.31,-2.51 -0.31,-4.01 0.03,-0.07 0.03,-2.98 0.03,-3.4l0.77 0zm51.13 -30.58l6.15 0 15.84 39.52 0.64 0 15.39 -39.52 7.5 0 14.8 39.52 0.56 0 16.27 -39.52 7.42 0c-6.4,15.43 -12.8,30.87 -19.22,46.29l-9.81 0 -13.74 -36.76 -14.38 36.76 -9.95 0c-6.22,-15.43 -12.45,-30.86 -18.68,-46.29l1.21 0zm106.95 45.41l0 -45.41 27.83 0c2.98,0 5.54,0.07 7.68,0.21 2.14,0.14 3.84,0.36 5.09,0.65 1.56,0.36 2.95,1.02 4.15,1.98 1.2,0.96 2.22,2.21 3.04,3.75 0.54,1.01 0.97,2.25 1.31,3.73 0.33,1.44 0.57,3.12 0.72,5.04 0.08,0.99 0.13,2.16 0.17,3.51 0.04,1.34 0.06,2.78 0.06,4.29 0,2.74 -0.11,5.21 -0.33,7.42 -0.22,2.21 -0.55,4.14 -1,5.79 -0.71,2.62 -1.83,4.7 -3.36,6.25 -1.53,1.55 -3.47,2.56 -5.79,3.01 -1.16,0.22 -2.7,0.39 -4.6,0.5 -1.91,0.11 -4.15,0.17 -6.74,0.17l-28.23 0 0 -0.88zm6.78 -6.09l21.21 0c2.25,0 4,-0.02 5.25,-0.05 1.3,-0.03 2.21,-0.08 2.71,-0.15 1.09,-0.15 2.02,-0.41 2.79,-0.78 0.73,-0.35 1.33,-0.81 1.79,-1.36 0.85,-1.03 1.49,-2.7 1.93,-4.99 0.46,-2.39 0.69,-5.43 0.69,-9.13 0,-6.8 -0.74,-11.23 -2.21,-13.29l-0.01 -0.01c-0.25,-0.35 -0.54,-0.67 -0.87,-0.94 -0.34,-0.28 -0.73,-0.51 -1.15,-0.7 -0.43,-0.19 -0.97,-0.36 -1.6,-0.5 -0.63,-0.14 -1.35,-0.25 -2.17,-0.33 -0.5,-0.05 -1.36,-0.08 -2.56,-0.1 -1.11,-0.02 -2.73,-0.03 -4.85,-0.03l-20.96 0 0 32.35zm54.31 6.09l0 -45.41 39.94 0 0 6.97 -33.15 0 0 11.86 31.74 0 0 6.97 -31.74 0 0 13.53 33.21 0 0 6.97 -40 0 0 -0.88zm46.73 -45.41l6.22 0 19.4 39.06 0.94 0 18.97 -39.06 7.6 0c-7.5,15.43 -14.99,30.87 -22.5,46.29l-8.97 0c-7.65,-15.44 -15.31,-30.86 -22.98,-46.29l1.32 0zm60.67 45.41l0 -45.41 39.94 0 0 6.97 -33.16 0 0 11.86 31.74 0 0 6.97 -31.74 0 0 13.53 33.21 0 0 6.97 -40 0 0 -0.88zm50.45 -45.41l6.01 0 0 39.32 30.92 0 0 6.97 -37.7 0 0 -46.29 0.78 0zm71.99 -0.07c3.88,0 7.17,0.1 9.88,0.3 2.72,0.2 4.84,0.5 6.37,0.9l0.01 0c1.17,0.32 2.21,0.84 3.12,1.55 0.91,0.72 1.68,1.63 2.31,2.73l0.01 0.01c0.76,1.37 1.32,3.57 1.69,6.61 0.35,2.96 0.53,6.75 0.53,11.35 0,2.77 -0.06,5.27 -0.2,7.49 -0.13,2.21 -0.33,4.15 -0.59,5.79 -0.38,2.38 -1.16,4.3 -2.34,5.75 -1.19,1.46 -2.76,2.44 -4.72,2.92 -1.5,0.37 -3.35,0.65 -5.57,0.83 -2.2,0.18 -4.75,0.27 -7.65,0.27 -1.53,0 -3.26,-0.01 -5.21,-0.05 -1.8,-0.03 -3.66,-0.07 -5.56,-0.12 -1.9,-0.05 -3.45,-0.1 -4.67,-0.15 -1.31,-0.06 -2.25,-0.11 -2.82,-0.17l-0.01 -0c-0.99,-0.11 -1.88,-0.26 -2.67,-0.44 -0.83,-0.19 -1.55,-0.42 -2.15,-0.68l-0.01 -0c-0.61,-0.27 -1.2,-0.63 -1.75,-1.06 -0.54,-0.42 -1.06,-0.93 -1.53,-1.5 -0.57,-0.67 -1.04,-1.41 -1.41,-2.2 -0.38,-0.8 -0.66,-1.65 -0.85,-2.56 -0.3,-1.42 -0.52,-3.33 -0.67,-5.73 -0.14,-2.37 -0.22,-5.22 -0.22,-8.54 0,-3.61 0.11,-6.71 0.33,-9.31 0.22,-2.62 0.56,-4.7 1,-6.24 0.57,-1.93 1.5,-3.47 2.81,-4.62 1.29,-1.13 2.92,-1.87 4.9,-2.2 1.76,-0.31 4.12,-0.54 7.06,-0.69 2.97,-0.15 6.5,-0.23 10.58,-0.23zm-3.65 7.1c-2.57,0 -4.81,0.06 -6.71,0.18 -1.91,0.12 -3.5,0.31 -4.79,0.55 -0.97,0.18 -1.75,0.46 -2.34,0.84 -0.52,0.35 -0.89,0.78 -1.1,1.29 -0.79,2.01 -1.19,6.27 -1.19,12.79 0,2.72 0.04,5.06 0.13,7 0.08,1.96 0.21,3.57 0.38,4.82 0.12,0.9 0.35,1.64 0.67,2.22 0.29,0.53 0.68,0.92 1.15,1.17 0.53,0.29 1.32,0.52 2.35,0.71 1.08,0.2 2.42,0.34 4.01,0.42 1.96,0.1 3.79,0.17 5.49,0.22 1.65,0.05 3.27,0.07 4.85,0.07 3.23,0 5.99,-0.07 8.27,-0.21 2.28,-0.14 4.11,-0.36 5.49,-0.65l0.01 -0c0.52,-0.1 0.98,-0.26 1.37,-0.47 0.37,-0.2 0.68,-0.44 0.94,-0.73 0.25,-0.28 0.46,-0.64 0.64,-1.06 0.19,-0.45 0.33,-0.97 0.44,-1.58 0.21,-1.3 0.37,-2.91 0.48,-4.81 0.11,-1.9 0.16,-4.12 0.16,-6.64 0,-1.16 -0.01,-2.28 -0.04,-3.38 -0.03,-1.14 -0.07,-2.33 -0.13,-3.58 -0.05,-1.24 -0.11,-2.25 -0.18,-3.05 -0.06,-0.8 -0.14,-1.42 -0.21,-1.86l-0 -0.02c-0.16,-1.01 -0.54,-1.81 -1.14,-2.4 -0.63,-0.62 -1.51,-1.02 -2.65,-1.23 -0.91,-0.16 -1.88,-0.28 -2.89,-0.37 -1.04,-0.09 -2.11,-0.15 -3.21,-0.17 -1.49,-0.03 -3.09,-0.06 -4.79,-0.07 -1.48,-0.01 -3.3,-0.02 -5.47,-0.02zm38.6 38.38l0 -45.41c4.31,0 23.02,-0.61 25.6,0 3.27,0.08 5.89,0.16 7.84,0.24 1.99,0.09 3.33,0.18 4.02,0.29 1.05,0.15 2.01,0.49 2.87,1 0.87,0.51 1.65,1.21 2.34,2.09 0.85,1.09 1.48,2.58 1.9,4.46 0.4,1.81 0.6,4.01 0.6,6.58 0,3.91 -0.42,6.89 -1.25,8.95 -0.3,0.74 -0.69,1.42 -1.17,2.05 -0.47,0.61 -1.03,1.17 -1.68,1.67 -0.64,0.49 -1.32,0.9 -2.03,1.2 -0.71,0.31 -1.45,0.52 -2.24,0.64l-0.01 0c-0.76,0.11 -2.09,0.19 -4,0.25 -1.84,0.06 -4.25,0.1 -7.2,0.11l-18.8 0 0 16.76 -6.78 0 0 -0.88zm6.78 -22.85l18.8 0c2.29,-0.01 4.18,-0.04 5.68,-0.09 1.49,-0.05 2.57,-0.11 3.24,-0.2 0.95,-0.14 1.71,-0.45 2.27,-0.93 0.54,-0.46 0.91,-1.1 1.12,-1.92 0.12,-0.47 0.21,-1.08 0.27,-1.83 0.06,-0.75 0.09,-1.66 0.09,-2.73 0,-1.26 -0.03,-2.32 -0.1,-3.18 -0.06,-0.84 -0.15,-1.48 -0.27,-1.93 -0.18,-0.65 -0.53,-1.17 -1.03,-1.56 -0.55,-0.42 -1.3,-0.7 -2.25,-0.82 -0.71,-0.08 -1.81,-0.16 -3.33,-0.23 -1.52,-0.07 -3.43,-0.13 -5.71,-0.19l-18.8 0 0 15.6zm48.02 22.85l0 -45.41 39.94 0 0 6.97 -33.16 0 0 11.86 31.74 0 0 6.97 -31.74 0 0 13.53 33.21 0 0 6.97 -40 0 0 -0.88zm49.67 0l0 -45.41c2.72,0 24.78,-0.16 25.21,0 3.33,0.04 6.06,0.11 8.17,0.2 2.15,0.09 3.69,0.21 4.64,0.36 1.73,0.26 3.2,0.84 4.42,1.73 1.24,0.91 2.2,2.15 2.89,3.71l0 0.01c0.44,1.02 0.77,2.23 0.99,3.61 0.21,1.36 0.32,2.89 0.32,4.59 0,1.57 -0.05,2.96 -0.15,4.17 -0.1,1.22 -0.26,2.24 -0.46,3.04 -0.38,1.45 -1.14,2.66 -2.26,3.6 -0.52,0.43 -1.11,0.81 -1.78,1.13 0.75,0.41 1.4,0.94 1.96,1.58l0.01 0.01c0.3,0.36 0.56,0.74 0.78,1.14 0.23,0.42 0.41,0.85 0.55,1.28l0 0.01c0.13,0.42 0.24,0.92 0.33,1.49 0.09,0.57 0.16,1.2 0.21,1.88 0.03,0.41 0.05,1.07 0.07,2 0.02,1.03 0.02,2.21 0.02,3.54l0 7.2 -6.78 0 0 -5.14c0,-1.86 -0.02,-3.38 -0.05,-4.57 -0.03,-1.2 -0.08,-2.15 -0.15,-2.82 -0.17,-1.23 -0.54,-2.19 -1.13,-2.88 -0.58,-0.68 -1.39,-1.13 -2.43,-1.33 -0.55,-0.09 -1.18,-0.16 -1.88,-0.22 -0.73,-0.05 -1.52,-0.09 -2.37,-0.1l-5.94 -0.03 -18.42 0 0 17.09 -6.78 0 0 -0.88zm6.78 -23.18l18.42 0c2.57,0 4.67,-0.03 6.3,-0.08 1.69,-0.05 2.97,-0.13 3.84,-0.24 1.15,-0.15 2.06,-0.49 2.72,-1.01 0.61,-0.48 1.02,-1.14 1.22,-1.98 0.15,-0.67 0.27,-1.4 0.35,-2.18 0.08,-0.78 0.12,-1.62 0.12,-2.53 0,-1.59 -0.14,-2.89 -0.43,-3.89 -0.26,-0.91 -0.63,-1.56 -1.12,-1.95 -0.35,-0.28 -0.79,-0.52 -1.3,-0.7 -0.54,-0.19 -1.18,-0.32 -1.9,-0.39 -1.11,-0.1 -2.48,-0.19 -4.09,-0.24 -1.56,-0.05 -3.46,-0.08 -5.7,-0.08l-18.42 0 0 15.26z"/>
  </g>
 </g>
</svg>
